<svg width="88" height="38" viewBox="0 0 88 38" fill="none" xmlns="http://www.w3.org/2000/svg">
<path d="M7.35425 13H3.86499V1.96094H0.419678V0.34375H10.7996V1.96094H7.35425V13ZM21.6189 13H18.6482V11.7871C18.2966 12.2676 17.8718 12.625 17.3738 12.8594C16.8816 13.0879 16.3396 13.2021 15.7478 13.2021C14.9744 13.2021 14.283 13.0645 13.6736 12.7891C13.0642 12.5137 12.5486 12.1387 12.1267 11.6641C11.7048 11.1836 11.3826 10.6211 11.1599 9.97656C10.9373 9.33203 10.8259 8.64062 10.8259 7.90234C10.8259 7.16406 10.9373 6.47266 11.1599 5.82812C11.3826 5.18359 11.7048 4.62402 12.1267 4.14941C12.5486 3.66895 13.0642 3.29102 13.6736 3.01562C14.283 2.74023 14.9744 2.60254 15.7478 2.60254C16.1404 2.60254 16.5125 2.66113 16.864 2.77832C17.2214 2.89551 17.5466 3.0625 17.8396 3.2793C18.1384 3.49023 18.3992 3.74805 18.6218 4.05273C18.8503 4.35156 19.0291 4.68555 19.158 5.05469L20.4763 2.84863H21.6189V13ZM18.6306 7.90234C18.6306 7.63867 18.616 7.36035 18.5867 7.06738C18.5632 6.77441 18.5193 6.48438 18.4548 6.19727C18.3904 5.91016 18.2996 5.6377 18.1824 5.37988C18.071 5.11621 17.9246 4.88477 17.7429 4.68555C17.5671 4.48047 17.3533 4.31934 17.1013 4.20215C16.8494 4.08496 16.5564 4.02637 16.2224 4.02637C15.8884 4.02637 15.5984 4.08789 15.3523 4.21094C15.1062 4.32812 14.8953 4.48926 14.7195 4.69434C14.5437 4.89355 14.3972 5.125 14.28 5.38867C14.1687 5.65234 14.0808 5.92773 14.0164 6.21484C13.9519 6.50195 13.905 6.79199 13.8757 7.08496C13.8523 7.37207 13.8406 7.64453 13.8406 7.90234C13.8406 8.16016 13.8523 8.43555 13.8757 8.72852C13.905 9.02148 13.9519 9.31152 14.0164 9.59863C14.0808 9.88574 14.1687 10.1611 14.28 10.4248C14.3972 10.6885 14.5437 10.9229 14.7195 11.1279C14.8953 11.3271 15.1062 11.4883 15.3523 11.6113C15.5984 11.7285 15.8884 11.7871 16.2224 11.7871C16.5271 11.7871 16.7966 11.7256 17.031 11.6025C17.2712 11.4736 17.4792 11.3037 17.655 11.0928C17.8367 10.8818 17.989 10.6416 18.1121 10.3721C18.2351 10.1025 18.3347 9.82422 18.4109 9.53711C18.4871 9.25 18.5427 8.96582 18.5779 8.68457C18.613 8.39746 18.6306 8.13672 18.6306 7.90234ZM33.0798 13H30.1091L27.6218 9.44043L25.0818 13H23.0251L26.8484 8.32422L23.0251 2.84863H25.9958L28.4041 6.29395L31.0232 2.84863H33.0798L29.1775 7.40137L33.0798 13ZM36.4812 8.18359C36.8445 8.26562 37.2078 8.33008 37.571 8.37695C37.9343 8.42383 38.3005 8.44727 38.6697 8.44727C39.0564 8.44727 39.4138 8.41211 39.7419 8.3418C40.0759 8.26562 40.363 8.14258 40.6033 7.97266C40.8494 7.79688 41.0427 7.56543 41.1833 7.27832C41.324 6.99121 41.3943 6.63379 41.3943 6.20605C41.3943 5.86035 41.3474 5.54395 41.2537 5.25684C41.1599 4.96973 41.0193 4.72363 40.8318 4.51855C40.6501 4.31348 40.4246 4.15527 40.155 4.04395C39.8855 3.92676 39.572 3.86816 39.2146 3.86816C38.8806 3.86816 38.5789 3.92969 38.3093 4.05273C38.0457 4.17578 37.8113 4.34277 37.6062 4.55371C37.407 4.75879 37.2341 4.99902 37.0876 5.27441C36.947 5.5498 36.8298 5.83691 36.7361 6.13574C36.6423 6.43457 36.575 6.73633 36.5339 7.04102C36.4929 7.3457 36.4724 7.63281 36.4724 7.90234C36.4724 7.94922 36.4724 7.99609 36.4724 8.04297C36.4724 8.08984 36.4753 8.13672 36.4812 8.18359ZM43.8025 6.17969C43.8025 6.5957 43.7351 6.96777 43.6003 7.2959C43.4656 7.61816 43.281 7.90234 43.0466 8.14844C42.8181 8.39453 42.5515 8.60254 42.2468 8.77246C41.9421 8.94238 41.6169 9.08301 41.2712 9.19434C40.9255 9.2998 40.5681 9.37598 40.199 9.42285C39.8357 9.46973 39.4812 9.49316 39.1355 9.49316C38.696 9.49316 38.2625 9.46387 37.8347 9.40527C37.407 9.34082 36.9851 9.24121 36.5691 9.10645C36.6335 9.49316 36.7361 9.8623 36.8767 10.2139C37.0173 10.5596 37.2048 10.8643 37.4392 11.1279C37.6736 11.3857 37.9607 11.5908 38.3005 11.7432C38.6462 11.8955 39.0535 11.9717 39.5222 11.9717C39.8328 11.9717 40.1287 11.9248 40.4099 11.8311C40.6912 11.7373 40.949 11.6055 41.1833 11.4355C41.4177 11.2656 41.6228 11.0635 41.7986 10.8291C41.9802 10.5947 42.1267 10.334 42.238 10.0469L43.5212 10.5215C43.3279 10.9844 43.0613 11.3857 42.7214 11.7256C42.3875 12.0596 42.0066 12.3379 41.5789 12.5605C41.157 12.7773 40.7058 12.9385 40.2253 13.0439C39.7507 13.1494 39.2791 13.2021 38.8103 13.2021C38.0369 13.2021 37.322 13.0732 36.6658 12.8154C36.0095 12.5518 35.4441 12.1855 34.9695 11.7168C34.4949 11.248 34.1228 10.6885 33.8533 10.0381C33.5837 9.3877 33.449 8.67578 33.449 7.90234C33.449 7.12891 33.5837 6.41699 33.8533 5.7666C34.1228 5.11621 34.4949 4.55664 34.9695 4.08789C35.4441 3.61914 36.0095 3.25586 36.6658 2.99805C37.322 2.73438 38.0369 2.60254 38.8103 2.60254C39.1853 2.60254 39.5691 2.62891 39.9617 2.68164C40.3542 2.73438 40.7351 2.81934 41.1042 2.93652C41.4734 3.04785 41.822 3.19434 42.1501 3.37598C42.4783 3.55762 42.7625 3.7832 43.0027 4.05273C43.2488 4.31641 43.4421 4.62402 43.5828 4.97559C43.7292 5.32715 43.8025 5.72852 43.8025 6.17969ZM54.3933 9.75684C54.3933 10.2021 54.3289 10.5977 54.2 10.9434C54.071 11.2891 53.8953 11.5908 53.6726 11.8486C53.45 12.1006 53.1863 12.3145 52.8816 12.4902C52.5769 12.6602 52.2488 12.7979 51.8972 12.9033C51.5515 13.0088 51.1882 13.085 50.8074 13.1318C50.4265 13.1787 50.0486 13.2021 49.6736 13.2021C49.1697 13.2021 48.7244 13.1699 48.3376 13.1055C47.9509 13.041 47.5818 12.9385 47.2302 12.7979C46.8787 12.6514 46.5271 12.4639 46.1755 12.2354C45.8298 12.0068 45.4431 11.7285 45.0154 11.4004L46.7468 9.98535C46.905 10.2842 47.113 10.5566 47.3708 10.8027C47.6345 11.043 47.907 11.251 48.1882 11.4268C48.4695 11.6025 48.7419 11.7373 49.0056 11.8311C49.2693 11.9248 49.4832 11.9717 49.6472 11.9717C49.782 11.9717 49.9343 11.9688 50.1042 11.9629C50.2742 11.9512 50.447 11.9336 50.6228 11.9102C50.7986 11.8809 50.9714 11.8398 51.1414 11.7871C51.3113 11.7344 51.4607 11.6641 51.5896 11.5762C51.7244 11.4824 51.8298 11.3682 51.906 11.2334C51.988 11.0928 52.0291 10.9258 52.0291 10.7324C52.0291 10.5332 51.9763 10.3604 51.8708 10.2139C51.7712 10.0615 51.6394 9.92969 51.4753 9.81836C51.3113 9.70703 51.1238 9.61328 50.9128 9.53711C50.7019 9.46094 50.488 9.39355 50.2712 9.33496C50.0603 9.27637 49.8552 9.22656 49.656 9.18555C49.4568 9.13867 49.2839 9.09473 49.1375 9.05371C48.8679 8.97754 48.5837 8.90137 48.2849 8.8252C47.9861 8.74316 47.6902 8.65234 47.3972 8.55273C47.1042 8.44727 46.823 8.32422 46.5535 8.18359C46.2898 8.04297 46.0554 7.87598 45.8503 7.68262C45.6511 7.4834 45.49 7.25195 45.3669 6.98828C45.2498 6.71875 45.1912 6.40527 45.1912 6.04785C45.1912 5.3916 45.3201 4.84375 45.5779 4.4043C45.8416 3.95898 46.1873 3.60449 46.615 3.34082C47.0427 3.07129 47.5291 2.88086 48.074 2.76953C48.6189 2.6582 49.1726 2.60254 49.7351 2.60254C50.1218 2.60254 50.5291 2.64355 50.9568 2.72559C51.3845 2.80176 51.8005 2.91895 52.2048 3.07715C52.6091 3.22949 52.9871 3.41699 53.3386 3.63965C53.6902 3.8623 53.9832 4.11719 54.2175 4.4043L52.4861 5.82812C52.3572 5.47656 52.1873 5.1748 51.9763 4.92285C51.7712 4.6709 51.5457 4.46582 51.2996 4.30762C51.0593 4.14355 50.8103 4.02344 50.5525 3.94727C50.3005 3.87109 50.0662 3.83301 49.8494 3.83301C49.6384 3.83301 49.4011 3.8418 49.1375 3.85938C48.8738 3.87695 48.6248 3.92676 48.3904 4.00879C48.1619 4.09082 47.9656 4.2168 47.8015 4.38672C47.6433 4.55078 47.5642 4.7793 47.5642 5.07227C47.5642 5.2832 47.6111 5.46484 47.7048 5.61719C47.8044 5.76367 47.9333 5.89258 48.0916 6.00391C48.2498 6.10938 48.4285 6.2002 48.6277 6.27637C48.8328 6.34668 49.0408 6.41113 49.2517 6.46973C49.4626 6.52246 49.6677 6.56934 49.8669 6.61035C50.0662 6.65137 50.2449 6.69531 50.4031 6.74219C50.6726 6.81836 50.9568 6.89746 51.2556 6.97949C51.5603 7.05566 51.8591 7.14648 52.1521 7.25195C52.4451 7.35156 52.7263 7.47168 52.9958 7.6123C53.2712 7.74707 53.5115 7.91406 53.7166 8.11328C53.9216 8.3125 54.0857 8.54688 54.2087 8.81641C54.3318 9.08008 54.3933 9.39355 54.3933 9.75684ZM10.5886 33H1.50073V20.3438H10.5886V21.9609H4.98999V25.8721H9.31421V27.4805H4.98999V31.3828H10.5886V33ZM21.531 33H18.5603L16.073 29.4404L13.533 33H11.4763L15.2996 28.3242L11.4763 22.8486H14.447L16.8552 26.2939L19.4744 22.8486H21.531L17.6287 27.4014L21.531 33ZM33.7039 27.9023C33.7039 28.6406 33.5925 29.332 33.3699 29.9766C33.1472 30.6211 32.825 31.1836 32.4031 31.6641C31.9812 32.1387 31.4656 32.5137 30.8562 32.7891C30.2468 33.0645 29.5554 33.2021 28.782 33.2021C28.1902 33.2021 27.6453 33.0879 27.1472 32.8594C26.655 32.625 26.2332 32.2676 25.8816 31.7871V37.6846H22.9109V22.8486H24.0535L25.3718 25.0547C25.5007 24.6855 25.6765 24.3516 25.8992 24.0527C26.1277 23.748 26.3884 23.4902 26.6814 23.2793C26.9802 23.0625 27.3054 22.8955 27.657 22.7783C28.0144 22.6611 28.3894 22.6025 28.782 22.6025C29.5554 22.6025 30.2468 22.7402 30.8562 23.0156C31.4656 23.291 31.9812 23.6689 32.4031 24.1494C32.825 24.624 33.1472 25.1836 33.3699 25.8281C33.5925 26.4727 33.7039 27.1641 33.7039 27.9023ZM30.6892 27.9023C30.6892 27.6445 30.6746 27.3721 30.6453 27.085C30.6218 26.792 30.5779 26.502 30.5134 26.2148C30.449 25.9277 30.3582 25.6523 30.241 25.3887C30.1296 25.125 29.9861 24.8936 29.8103 24.6943C29.6345 24.4893 29.4207 24.3281 29.1687 24.2109C28.9226 24.0879 28.6355 24.0264 28.3074 24.0264C27.9675 24.0264 27.6716 24.085 27.4197 24.2021C27.1736 24.3193 26.9597 24.4805 26.7781 24.6855C26.6023 24.8848 26.4558 25.1162 26.3386 25.3799C26.2273 25.6377 26.1394 25.9102 26.075 26.1973C26.0105 26.4844 25.9636 26.7744 25.9343 27.0674C25.9109 27.3604 25.8992 27.6387 25.8992 27.9023C25.8992 28.1367 25.9167 28.3975 25.9519 28.6846C25.9871 28.9658 26.0427 29.25 26.1189 29.5371C26.1951 29.8242 26.2947 30.1025 26.4177 30.3721C26.5408 30.6416 26.6902 30.8818 26.866 31.0928C27.0476 31.3037 27.2556 31.4736 27.49 31.6025C27.7302 31.7256 28.0027 31.7871 28.3074 31.7871C28.6414 31.7871 28.9314 31.7285 29.1775 31.6113C29.4236 31.4883 29.6345 31.3271 29.8103 31.1279C29.9861 30.9229 30.1296 30.6885 30.241 30.4248C30.3582 30.1611 30.449 29.8857 30.5134 29.5986C30.5779 29.3115 30.6218 29.0215 30.6453 28.7285C30.6746 28.4355 30.6892 28.1602 30.6892 27.9023ZM38.5906 33H35.6199V18.1729H36.7625L38.5906 21.2578V33ZM51.2908 33H48.3201V31.7871C47.9685 32.2676 47.5437 32.625 47.0457 32.8594C46.5535 33.0879 46.0115 33.2021 45.4197 33.2021C44.6462 33.2021 43.9548 33.0645 43.3455 32.7891C42.7361 32.5137 42.2205 32.1387 41.7986 31.6641C41.3767 31.1836 41.0544 30.6211 40.8318 29.9766C40.6091 29.332 40.4978 28.6406 40.4978 27.9023C40.4978 27.1641 40.6091 26.4727 40.8318 25.8281C41.0544 25.1836 41.3767 24.624 41.7986 24.1494C42.2205 23.6689 42.7361 23.291 43.3455 23.0156C43.9548 22.7402 44.6462 22.6025 45.4197 22.6025C45.8123 22.6025 46.1843 22.6611 46.5359 22.7783C46.8933 22.8955 47.2185 23.0625 47.5115 23.2793C47.8103 23.4902 48.071 23.748 48.2937 24.0527C48.5222 24.3516 48.7009 24.6855 48.8298 25.0547L50.1482 22.8486H51.2908V33ZM48.3025 27.9023C48.3025 27.6387 48.2878 27.3604 48.2585 27.0674C48.2351 26.7744 48.1912 26.4844 48.1267 26.1973C48.0623 25.9102 47.9714 25.6377 47.8542 25.3799C47.7429 25.1162 47.5964 24.8848 47.4148 24.6855C47.239 24.4805 47.0251 24.3193 46.7732 24.2021C46.5212 24.085 46.2283 24.0264 45.8943 24.0264C45.5603 24.0264 45.2703 24.0879 45.0242 24.2109C44.7781 24.3281 44.5671 24.4893 44.3914 24.6943C44.2156 24.8936 44.0691 25.125 43.9519 25.3887C43.8406 25.6523 43.7527 25.9277 43.6882 26.2148C43.6238 26.502 43.5769 26.792 43.5476 27.085C43.5242 27.3721 43.5125 27.6445 43.5125 27.9023C43.5125 28.1602 43.5242 28.4355 43.5476 28.7285C43.5769 29.0215 43.6238 29.3115 43.6882 29.5986C43.7527 29.8857 43.8406 30.1611 43.9519 30.4248C44.0691 30.6885 44.2156 30.9229 44.3914 31.1279C44.5671 31.3271 44.7781 31.4883 45.0242 31.6113C45.2703 31.7285 45.5603 31.7871 45.8943 31.7871C46.199 31.7871 46.4685 31.7256 46.7029 31.6025C46.9431 31.4736 47.1511 31.3037 47.3269 31.0928C47.5085 30.8818 47.6609 30.6416 47.7839 30.3721C47.907 30.1025 48.0066 29.8242 48.0828 29.5371C48.1589 29.25 48.2146 28.9658 48.2498 28.6846C48.2849 28.3975 48.3025 28.1367 48.3025 27.9023ZM64.158 27.1816C64.158 27.8672 64.073 28.582 63.9031 29.3262C63.739 30.0703 63.5076 30.7998 63.2087 31.5146C62.9099 32.2295 62.5525 32.9004 62.1365 33.5273C61.7205 34.1602 61.2634 34.7051 60.7654 35.1621L59.6492 34.5557C59.8074 34.2627 59.9568 33.9346 60.0974 33.5713C60.238 33.208 60.364 32.8242 60.4753 32.4199C60.5925 32.0098 60.6951 31.5879 60.783 31.1543C60.8767 30.7207 60.9529 30.293 61.0115 29.8711C61.0759 29.4434 61.1228 29.0303 61.1521 28.6318C61.1873 28.2275 61.2048 27.8525 61.2048 27.5068C61.2048 27.2783 61.196 27.0352 61.1785 26.7773C61.1609 26.5137 61.1228 26.2529 61.0642 25.9951C61.0115 25.7314 60.9382 25.4795 60.8445 25.2393C60.7507 24.999 60.6248 24.7881 60.4666 24.6064C60.3142 24.4248 60.1267 24.2783 59.9041 24.167C59.6873 24.0557 59.4294 24 59.1306 24C58.8376 24 58.5769 24.0674 58.3484 24.2021C58.1199 24.3311 57.9177 24.5039 57.7419 24.7207C57.5662 24.9316 57.4138 25.1748 57.2849 25.4502C57.1619 25.7256 57.0593 26.0098 56.9773 26.3027C56.9011 26.5898 56.8455 26.874 56.8103 27.1553C56.7751 27.4365 56.7576 27.6885 56.7576 27.9111V33H53.7781V22.8486H54.9207L56.283 25.2129C56.447 24.8203 56.6521 24.4629 56.8982 24.1406C57.1443 23.8184 57.4226 23.543 57.7332 23.3145C58.0437 23.0859 58.3865 22.9102 58.7615 22.7871C59.1423 22.6641 59.5525 22.6025 59.9919 22.6025C60.6951 22.6025 61.3074 22.7168 61.8289 22.9453C62.3503 23.1738 62.7839 23.4932 63.1296 23.9033C63.4753 24.3076 63.7332 24.791 63.9031 25.3535C64.073 25.9102 64.158 26.5195 64.158 27.1816ZM68.5613 28.1836C68.9246 28.2656 69.2878 28.3301 69.6511 28.377C70.0144 28.4238 70.3806 28.4473 70.7498 28.4473C71.1365 28.4473 71.4939 28.4121 71.822 28.3418C72.156 28.2656 72.4431 28.1426 72.6833 27.9727C72.9294 27.7969 73.1228 27.5654 73.2634 27.2783C73.4041 26.9912 73.4744 26.6338 73.4744 26.2061C73.4744 25.8604 73.4275 25.5439 73.3337 25.2568C73.24 24.9697 73.0994 24.7236 72.9119 24.5186C72.7302 24.3135 72.5046 24.1553 72.2351 24.0439C71.9656 23.9268 71.6521 23.8682 71.2947 23.8682C70.9607 23.8682 70.6589 23.9297 70.3894 24.0527C70.1257 24.1758 69.8914 24.3428 69.6863 24.5537C69.4871 24.7588 69.3142 24.999 69.1677 25.2744C69.0271 25.5498 68.9099 25.8369 68.8162 26.1357C68.7224 26.4346 68.655 26.7363 68.614 27.041C68.573 27.3457 68.5525 27.6328 68.5525 27.9023C68.5525 27.9492 68.5525 27.9961 68.5525 28.043C68.5525 28.0898 68.5554 28.1367 68.5613 28.1836ZM75.8826 26.1797C75.8826 26.5957 75.8152 26.9678 75.6804 27.2959C75.5457 27.6182 75.3611 27.9023 75.1267 28.1484C74.8982 28.3945 74.6316 28.6025 74.3269 28.7725C74.0222 28.9424 73.697 29.083 73.3513 29.1943C73.0056 29.2998 72.6482 29.376 72.2791 29.4229C71.9158 29.4697 71.5613 29.4932 71.2156 29.4932C70.7761 29.4932 70.3425 29.4639 69.9148 29.4053C69.4871 29.3408 69.0652 29.2412 68.6492 29.1064C68.7136 29.4932 68.8162 29.8623 68.9568 30.2139C69.0974 30.5596 69.2849 30.8643 69.5193 31.1279C69.7537 31.3857 70.0408 31.5908 70.3806 31.7432C70.7263 31.8955 71.1335 31.9717 71.6023 31.9717C71.9128 31.9717 72.2087 31.9248 72.49 31.8311C72.7712 31.7373 73.0291 31.6055 73.2634 31.4355C73.4978 31.2656 73.7029 31.0635 73.8787 30.8291C74.0603 30.5947 74.2068 30.334 74.3181 30.0469L75.6013 30.5215C75.408 30.9844 75.1414 31.3857 74.8015 31.7256C74.4675 32.0596 74.0867 32.3379 73.6589 32.5605C73.2371 32.7773 72.7859 32.9385 72.3054 33.0439C71.8308 33.1494 71.3591 33.2021 70.8904 33.2021C70.1169 33.2021 69.4021 33.0732 68.7458 32.8154C68.0896 32.5518 67.5242 32.1855 67.0496 31.7168C66.575 31.248 66.2029 30.6885 65.9333 30.0381C65.6638 29.3877 65.5291 28.6758 65.5291 27.9023C65.5291 27.1289 65.6638 26.417 65.9333 25.7666C66.2029 25.1162 66.575 24.5566 67.0496 24.0879C67.5242 23.6191 68.0896 23.2559 68.7458 22.998C69.4021 22.7344 70.1169 22.6025 70.8904 22.6025C71.2654 22.6025 71.6492 22.6289 72.0417 22.6816C72.4343 22.7344 72.8152 22.8193 73.1843 22.9365C73.5535 23.0479 73.9021 23.1943 74.2302 23.376C74.5583 23.5576 74.8425 23.7832 75.0828 24.0527C75.3289 24.3164 75.5222 24.624 75.6628 24.9756C75.8093 25.3271 75.8826 25.7285 75.8826 26.1797ZM87.9675 33H86.825L85.5066 30.7939C85.3777 31.1631 85.199 31.4971 84.9705 31.7959C84.7478 32.0947 84.4871 32.3525 84.1882 32.5693C83.8953 32.7803 83.5701 32.9443 83.2126 33.0615C82.8611 33.1787 82.489 33.2373 82.0964 33.2373C81.323 33.2373 80.6316 33.0996 80.0222 32.8242C79.4128 32.5488 78.8972 32.1738 78.4753 31.6992C78.0535 31.2188 77.7312 30.6562 77.5085 30.0117C77.2859 29.3672 77.1746 28.6758 77.1746 27.9375C77.1746 27.1992 77.2859 26.5078 77.5085 25.8633C77.7312 25.2188 78.0535 24.6592 78.4753 24.1846C78.8972 23.71 79.4128 23.335 80.0222 23.0596C80.6316 22.7842 81.323 22.6465 82.0964 22.6465C82.6882 22.6465 83.2302 22.7607 83.7224 22.9893C84.2205 23.2178 84.6453 23.5752 84.9968 24.0615V19.1133H87.9675V33ZM84.9792 27.9375C84.9792 27.7031 84.9617 27.4453 84.9265 27.1641C84.8914 26.8828 84.8357 26.5986 84.7595 26.3115C84.6833 26.0244 84.5837 25.7461 84.4607 25.4766C84.3376 25.207 84.1853 24.9668 84.0037 24.7559C83.8279 24.5449 83.6199 24.3779 83.3796 24.2549C83.1453 24.126 82.8757 24.0615 82.571 24.0615C82.2371 24.0615 81.947 24.123 81.7009 24.2461C81.4548 24.3633 81.2439 24.5244 81.0681 24.7295C80.8923 24.9287 80.7458 25.1602 80.6287 25.4238C80.5173 25.6875 80.4294 25.9629 80.365 26.25C80.3005 26.5371 80.2537 26.8271 80.2244 27.1201C80.2009 27.4072 80.1892 27.6797 80.1892 27.9375C80.1892 28.1953 80.2009 28.4707 80.2244 28.7637C80.2537 29.0508 80.3005 29.3379 80.365 29.625C80.4294 29.9121 80.5173 30.1904 80.6287 30.46C80.7458 30.7236 80.8923 30.958 81.0681 31.1631C81.2439 31.3623 81.4548 31.5234 81.7009 31.6465C81.947 31.7637 82.2371 31.8223 82.571 31.8223C82.905 31.8223 83.198 31.7637 83.45 31.6465C83.7019 31.5293 83.9158 31.3711 84.0916 31.1719C84.2732 30.9668 84.4197 30.7354 84.531 30.4775C84.6482 30.2139 84.739 29.9385 84.8035 29.6514C84.8679 29.3584 84.9119 29.0654 84.9353 28.7725C84.9646 28.4795 84.9792 28.2012 84.9792 27.9375Z" fill="black"/>
</svg>
