<?xml version="1.0" encoding="UTF-8" standalone="no"?>
<!DOCTYPE svg PUBLIC "-//W3C//DTD SVG 1.1//EN" "http://www.w3.org/Graphics/SVG/1.1/DTD/svg11.dtd">
<svg version="1.1" xmlns="http://www.w3.org/2000/svg" xmlns:xlink="http://www.w3.org/1999/xlink" preserveAspectRatio="xMidYMid meet" viewBox="0 0 640 640" width="640" height="640"><defs><path d="M469.46 87.37C469.46 186.33 387.59 266.67 286.74 266.67C185.89 266.67 104.01 186.33 104.01 87.37C104.01 -11.59 185.89 -91.93 286.74 -91.93C387.59 -91.93 469.46 -11.59 469.46 87.37Z" id="b3QiZMHtvk"></path><path d="M653.26 -52.84C664.4 -52.84 673.43 -43.8 673.43 -32.66C673.43 19.39 673.43 155.36 673.43 207.41C673.43 218.55 664.4 227.58 653.26 227.58C567.21 227.58 329.22 227.58 243.17 227.58C232.03 227.58 223 218.55 223 207.41C223 155.36 223 19.39 223 -32.66C223 -43.8 232.03 -52.84 243.17 -52.84C329.22 -52.84 567.21 -52.84 653.26 -52.84Z" id="awYjPfueb"></path><path d="M824.32 311.11C824.32 386.4 717.81 447.53 586.63 447.53C455.44 447.53 348.94 386.4 348.94 311.11C348.94 235.82 455.44 174.7 586.63 174.7C717.81 174.7 824.32 235.82 824.32 311.11Z" id="biJAPQlPB"></path></defs><g><g><g><g><use xlink:href="#b3QiZMHtvk" opacity="1" fill="#fff909" fill-opacity="1"></use></g><g><use xlink:href="#awYjPfueb" opacity="1" fill="#fff909" fill-opacity="1"></use></g></g><g><use xlink:href="#biJAPQlPB" opacity="1" fill="#ffffff" fill-opacity="1"></use></g></g></g></svg>